<svg width="41" height="43" viewBox="0 0 41 43" fill="none" xmlns="http://www.w3.org/2000/svg">
<path d="M14.5 22L14.5 17.5L14.5 13" stroke="url(#paint0_linear_106_21)" stroke-width="2" stroke-linecap="round"/>
<path d="M12 15L13.25 14L14.5 13" stroke="url(#paint1_linear_106_21)" stroke-width="2" stroke-linecap="round"/>
<path d="M22.5 22L22.5 17.5L22.5 13" stroke="url(#paint2_linear_106_21)" stroke-width="2" stroke-linecap="round"/>
<path d="M20 15L21.25 14L22.5 13" stroke="url(#paint3_linear_106_21)" stroke-width="2" stroke-linecap="round"/>
<path d="M25 35H29V27H25V35ZM4 27C1.79086 27 4.87114e-07 28.7909 4.87114e-07 31C4.87114e-07 33.2091 1.79086 35 4 35V27ZM25 27L4 27V35H25V27Z" fill="url(#paint4_linear_106_21)"/>
<path d="M29 23V27H37V23H29ZM37 4C37 1.79086 35.2091 -5.36442e-07 33 -5.36442e-07C30.7909 -5.36442e-07 29 1.79086 29 4H37ZM37 23V4H29V23H37Z" fill="url(#paint5_linear_106_21)"/>
<path d="M4 31L4 4" stroke="url(#paint6_linear_106_21)" stroke-width="8" stroke-linecap="round"/>
<path d="M33 4L4 4" stroke="url(#paint7_linear_106_21)" stroke-width="8" stroke-linecap="round"/>
<g filter="url(#filter0_d_106_21)">
<path d="M29 35L37 27H29V35Z" fill="#03BFCC"/>
</g>
<defs>
<filter id="filter0_d_106_21" x="25" y="27" width="16" height="16" filterUnits="userSpaceOnUse" color-interpolation-filters="sRGB">
<feFlood flood-opacity="0" result="BackgroundImageFix"/>
<feColorMatrix in="SourceAlpha" type="matrix" values="0 0 0 0 0 0 0 0 0 0 0 0 0 0 0 0 0 0 127 0" result="hardAlpha"/>
<feOffset dy="4"/>
<feGaussianBlur stdDeviation="2"/>
<feComposite in2="hardAlpha" operator="out"/>
<feColorMatrix type="matrix" values="0 0 0 0 0 0 0 0 0 0 0 0 0 0 0 0 0 0 0.25 0"/>
<feBlend mode="normal" in2="BackgroundImageFix" result="effect1_dropShadow_106_21"/>
<feBlend mode="normal" in="SourceGraphic" in2="effect1_dropShadow_106_21" result="shape"/>
</filter>
<linearGradient id="paint0_linear_106_21" x1="55.5" y1="4" x2="55.5" y2="-5" gradientUnits="userSpaceOnUse">
<stop offset="0.215" stop-color="#03BFCC"/>
<stop offset="0.82" stop-color="#7D59E8"/>
</linearGradient>
<linearGradient id="paint1_linear_106_21" x1="42.6125" y1="43.0156" x2="45.1125" y2="41.0156" gradientUnits="userSpaceOnUse">
<stop offset="0.215" stop-color="#03BFCC"/>
<stop offset="0.82" stop-color="#7D59E8"/>
</linearGradient>
<linearGradient id="paint2_linear_106_21" x1="63.5" y1="4" x2="63.5" y2="-5" gradientUnits="userSpaceOnUse">
<stop offset="0.215" stop-color="#03BFCC"/>
<stop offset="0.82" stop-color="#7D59E8"/>
</linearGradient>
<linearGradient id="paint3_linear_106_21" x1="50.6125" y1="43.0156" x2="53.1125" y2="41.0156" gradientUnits="userSpaceOnUse">
<stop offset="0.215" stop-color="#03BFCC"/>
<stop offset="0.82" stop-color="#7D59E8"/>
</linearGradient>
<linearGradient id="paint4_linear_106_21" x1="25" y1="30.5" x2="4" y2="30.5" gradientUnits="userSpaceOnUse">
<stop offset="0.135" stop-color="#7D59E8"/>
<stop offset="0.8849" stop-color="#03BFCC"/>
</linearGradient>
<linearGradient id="paint5_linear_106_21" x1="33" y1="31" x2="33" y2="4" gradientUnits="userSpaceOnUse">
<stop offset="0.19" stop-color="#7D59E8"/>
<stop offset="0.81" stop-color="#03BFCC"/>
</linearGradient>
<linearGradient id="paint6_linear_106_21" x1="4.5" y1="31" x2="4.5" y2="4" gradientUnits="userSpaceOnUse">
<stop offset="0.215" stop-color="#03BFCC"/>
<stop offset="0.82" stop-color="#7D59E8"/>
</linearGradient>
<linearGradient id="paint7_linear_106_21" x1="33" y1="3.5" x2="4" y2="3.5" gradientUnits="userSpaceOnUse">
<stop offset="0.25" stop-color="#03BFCC"/>
<stop offset="1" stop-color="#7D59E8"/>
</linearGradient>
</defs>
</svg>
