<svg width="34" height="34" viewBox="0 0 34 34" fill="none" xmlns="http://www.w3.org/2000/svg">
<path fill-rule="evenodd" clip-rule="evenodd" d="M17 34C26.3888 34 34 26.3888 34 17C34 7.61116 26.3888 0 17 0C7.61116 0 0 7.61116 0 17C0 26.3888 7.61116 34 17 34ZM21.5228 10.0587C22.0602 10.5932 22.5288 11.1867 22.9228 11.8246C24.227 12.1698 25.4144 12.8733 26.3541 13.8555C27.7188 15.2821 28.4561 17.1806 28.4561 19.125C28.4561 21.0694 27.7188 22.9679 26.3541 24.3945C24.9836 25.827 23.086 26.6667 21.0679 26.6667H14.9722H14.9708H14.9691C13.1699 26.6675 11.4197 26.1403 9.91843 25.1634C8.41822 24.1872 7.23401 22.8069 6.47835 21.1982C5.72322 19.5906 5.41901 17.8056 5.59028 16.0414C5.76156 14.277 6.40392 12.582 7.46334 11.1512C8.52383 9.71902 9.96524 8.60319 11.6394 7.95535C13.3154 7.30682 15.1402 7.16069 16.8994 7.53919C18.6574 7.91743 20.2562 8.79902 21.5228 10.0587ZM21.0679 15.5833H20.2141C19.9605 14.557 19.4367 13.6255 18.702 12.8948C17.9673 12.1641 17.0513 11.6634 16.058 11.4497C15.0647 11.236 14.034 11.3178 13.083 11.6858C12.1319 12.0538 11.2987 12.6933 10.678 13.5316C10.0573 14.3698 9.67394 15.3733 9.57156 16.4279C9.46918 17.4825 9.65185 18.546 10.0988 19.4976C10.5458 20.4491 11.2391 21.2505 12.1 21.8107C12.961 22.3709 13.955 22.6675 14.9691 22.6667H21.0679C21.9665 22.6667 22.8283 22.2935 23.4637 21.6293C24.0992 20.9651 24.4561 20.0643 24.4561 19.125C24.4561 18.1857 24.0992 17.2849 23.4637 16.6207C22.8283 15.9565 21.9665 15.5833 21.0679 15.5833Z" fill="url(#paint0_linear_106_22)"/>
<defs>
<linearGradient id="paint0_linear_106_22" x1="17" y1="0" x2="17" y2="34" gradientUnits="userSpaceOnUse">
<stop stop-color="#03BFCC"/>
<stop offset="1" stop-color="#7D59E8"/>
</linearGradient>
</defs>
</svg>
